<svg width="106" height="114" viewBox="0 0 106 114" fill="none" xmlns="http://www.w3.org/2000/svg">
<path d="M52.44 52.2804C49.5018 75.9417 34.4943 80.1507 34.4943 96.6014C34.4943 106.756 43.0215 114.996 53.1185 114.996C63.2155 114.996 71.737 106.75 71.737 96.6014C71.737 80.1507 56.7295 75.9417 53.7912 52.2804C53.6992 51.5732 52.532 51.5732 52.44 52.2804ZM17.9457 0.530438C15.0075 24.1917 0 28.3949 0 44.8514C0 55.0002 8.5215 63.2457 18.6185 63.2457C28.7155 63.2457 37.237 55.0002 37.237 44.8514C37.237 28.4007 22.2295 24.1917 19.2913 0.530438C19.205 -0.176812 18.032 -0.176812 17.9457 0.530438ZM86.9458 0.530438C84.0075 24.1917 69 28.4007 69 44.8514C69 55.0002 77.5215 63.2457 87.6185 63.2457C97.7155 63.2457 106.237 55.0002 106.237 44.8514C106.237 28.4007 91.2295 24.1917 88.2913 0.530438C88.1992 -0.176812 87.032 -0.176812 86.9458 0.530438Z" fill="#85B6FF"/>
</svg>
