<svg width="102" height="97" viewBox="0 0 102 97" fill="none" xmlns="http://www.w3.org/2000/svg">
<path d="M91.8333 72.4585C94.5805 72.4585 96.8965 73.4168 98.7812 75.3335C100.666 77.2502 101.592 79.4863 101.56 82.0418L63.0833 96.4168L29.5416 86.8335V43.7085H38.8854L73.7208 56.5981C76.2125 57.5884 77.4583 59.3772 77.4583 61.9647C77.4583 63.4661 76.9152 64.7759 75.8291 65.8939C74.743 67.012 73.3694 67.6029 71.7083 67.6668H58.2916L49.9062 64.4564L48.325 68.9606L58.2916 72.4585H91.8333ZM72.6666 6.47725C76.0527 2.54808 80.3652 0.583496 85.6041 0.583496C89.9486 0.583496 93.6222 2.18072 96.625 5.37516C99.6277 8.56961 101.225 12.2432 101.417 16.396C101.417 19.6863 99.8194 23.6154 96.625 28.1835C93.4305 32.7516 90.284 36.5689 87.1854 39.6356C84.0868 42.7022 79.2472 47.2543 72.6666 53.2918C66.0222 47.2543 61.1347 42.7022 58.0041 39.6356C54.8736 36.5689 51.727 32.7516 48.5645 28.1835C45.402 23.6154 43.8527 19.6863 43.9166 16.396C43.9166 12.0516 45.4659 8.37794 48.5645 5.37516C51.6632 2.37238 55.4007 0.775163 59.7771 0.583496C64.8882 0.583496 69.1847 2.54808 72.6666 6.47725ZM0.714966 43.7085H19.9583V96.4168H0.714966V43.7085Z" fill="black"/>
</svg>
