<svg width="93" height="99" viewBox="0 0 93 99" fill="none" xmlns="http://www.w3.org/2000/svg">
<path d="M84.8333 67.8541C86.6791 67.8551 88.4538 68.5661 89.7897 69.8399C91.1256 71.1136 91.9202 72.8525 92.0089 74.6962C92.0976 76.5399 91.4736 78.3471 90.2662 79.7432C89.0588 81.1394 87.3605 82.0175 85.5233 82.1956L84.8333 82.2291H8.16663C6.3208 82.2282 4.54607 81.5172 3.21019 80.2434C1.87431 78.9696 1.07969 77.2307 0.990989 75.387C0.902284 73.5434 1.5263 71.7362 2.73372 70.3401C3.94114 68.9439 5.63941 68.0658 7.47663 67.8877L8.16663 67.8541H84.8333ZM84.8333 34.3125C86.7395 34.3125 88.5677 35.0697 89.9156 36.4176C91.2635 37.7656 92.0208 39.5937 92.0208 41.5C92.0208 43.4062 91.2635 45.2344 89.9156 46.5823C88.5677 47.9302 86.7395 48.6875 84.8333 48.6875H8.16663C6.26038 48.6875 4.43221 47.9302 3.0843 46.5823C1.73638 45.2344 0.979126 43.4062 0.979126 41.5C0.979126 39.5937 1.73638 37.7656 3.0843 36.4176C4.43221 35.0697 6.26038 34.3125 8.16663 34.3125H84.8333ZM84.8333 0.770813C86.7395 0.770813 88.5677 1.52807 89.9156 2.87598C91.2635 4.2239 92.0208 6.05207 92.0208 7.95831C92.0208 9.86456 91.2635 11.6927 89.9156 13.0406C88.5677 14.3886 86.7395 15.1458 84.8333 15.1458H8.16663C6.26038 15.1458 4.43221 14.3886 3.0843 13.0406C1.73638 11.6927 0.979126 9.86456 0.979126 7.95831C0.979126 6.05207 1.73638 4.2239 3.0843 2.87598C4.43221 1.52807 6.26038 0.770813 8.16663 0.770813H84.8333Z" fill="black"/>
</svg>
