<svg width="52" height="48" viewBox="0 0 52 48" fill="none" xmlns="http://www.w3.org/2000/svg">
<path fill-rule="evenodd" clip-rule="evenodd" d="M15.6421 2.54167C16.4471 1.04208 18.1836 0 20.1904 0H31.6904C33.6971 0 35.4307 1.04208 36.2386 2.54167C38.2022 2.55692 39.7346 2.63571 41.1031 3.10846C42.7368 3.6734 44.1575 4.63349 45.2029 5.87888C46.258 7.13446 46.7554 8.74333 47.4339 10.9571L49.5671 17.8755L50.3721 20.0131L50.4411 20.0893C53.0315 23.0224 51.7981 27.3839 49.3314 36.1044C47.7616 41.6528 46.9796 44.4258 44.6394 46.0423C42.2991 47.6562 39.0647 47.6562 32.596 47.6562H19.2847C12.816 47.6562 9.58162 47.6562 7.24137 46.0423C4.90112 44.4258 4.11625 41.6528 2.54937 36.1044C0.0826213 27.3839 -1.15075 23.0224 1.43962 20.0893L1.50862 20.0131L2.31362 17.8755L4.44687 10.9571C5.12825 8.74333 5.62562 7.13192 6.67787 5.87633C7.72359 4.63188 9.14432 3.6727 10.7776 3.10846C12.1461 2.63571 13.6756 2.55438 15.6421 2.54167ZM15.6479 6.36179C13.7446 6.37958 12.9799 6.44312 12.3474 6.66171C11.4675 6.9659 10.7023 7.48294 10.1394 8.15367C9.63337 8.75604 9.33437 9.59733 8.50062 12.3093L6.86187 17.6188C9.79437 17.1562 13.8021 17.1562 19.2819 17.1562H32.596C38.0786 17.1562 42.0835 17.1563 45.016 17.6138L43.3801 12.3042C42.5464 9.59225 42.2474 8.75096 41.7414 8.14858C41.1784 7.47786 40.4132 6.96081 39.5334 6.65663C38.9009 6.43804 38.1361 6.3745 36.2329 6.35671C35.8247 7.11628 35.1812 7.75798 34.3772 8.20739C33.5732 8.65681 32.6416 8.89551 31.6904 8.89583H20.1904C19.2395 8.89574 18.308 8.65741 17.5041 8.20847C16.7001 7.75952 16.0565 7.12089 15.6479 6.36179Z" fill="black"/>
</svg>
