<svg width="113" height="113" viewBox="0 0 113 113" fill="none" xmlns="http://www.w3.org/2000/svg">
<path d="M43.7292 70.0833H72.4792M82.0625 19.7708H34.1458M82.0625 19.7708C85.875 19.7708 89.5313 18.2563 92.2272 15.5605C94.923 12.8647 96.4375 9.20832 96.4375 5.39583V3H36.5417C32.0938 3 27.828 4.76692 24.6829 7.91206C21.5378 11.0572 19.7708 15.3229 19.7708 19.7708C19.7708 24.2187 21.5378 28.4845 24.6829 31.6296C27.828 34.7747 32.0938 36.5417 36.5417 36.5417H96.4375V34.1458C96.4375 30.3333 94.923 26.677 92.2272 23.9812C89.5313 21.2853 85.875 19.7708 82.0625 19.7708ZM17.375 113.208H98.8333C98.8333 94.0417 103.309 75.8812 111.876 59.4602L113.208 56.9062V55.7083H3V56.9062L4.33208 59.4602C12.8996 75.8812 17.375 94.0417 17.375 113.208Z" stroke="black" stroke-width="4.79167"/>
</svg>
