<svg width="91" height="83" viewBox="0 0 91 83" fill="none" xmlns="http://www.w3.org/2000/svg">
<path d="M21.5409 60.6659H59.875V31.9159H21.5409V60.6659Z" stroke="#344054" stroke-width="4.6" stroke-linecap="round" stroke-linejoin="round"/>
<path d="M11.9591 79.8341H74.25C74.8793 79.8341 75.5025 79.7101 76.0839 79.4692C76.6653 79.2283 77.1936 78.8752 77.6385 78.4301C78.0834 77.9849 78.4363 77.4565 78.6769 76.875C78.9175 76.2935 79.0412 75.6702 79.0409 75.0409V17.5409C79.0409 16.2703 78.5362 15.0517 77.6377 14.1532C76.7392 13.2548 75.5206 12.75 74.25 12.75H21.5409" stroke="#306CFE" stroke-width="4.6" stroke-linecap="round" stroke-linejoin="round"/>
<path d="M88.625 65.4591H79.0409M21.541 70.25V12.75C21.5606 11.4791 21.3273 10.2169 20.8546 9.037C20.3818 7.85709 19.6791 6.783 18.7873 5.87727C17.8955 4.97153 16.8324 4.25224 15.6599 3.76127C14.4875 3.2703 13.2291 3.01746 11.958 3.01746C10.6869 3.01746 9.42851 3.2703 8.25606 3.76127C7.08361 4.25224 6.02054 4.97153 5.12873 5.87727C4.23692 6.783 3.53418 7.85709 3.06143 9.037C2.58868 10.2169 2.35536 11.4791 2.37505 12.75V70.25M21.541 70.25C21.5606 71.521 21.3273 72.7831 20.8546 73.963C20.3818 75.143 19.6791 76.217 18.7873 77.1228C17.8955 78.0285 16.8324 78.7478 15.6599 79.2388C14.4875 79.7297 13.2291 79.9826 11.958 79.9826C10.6869 79.9826 9.42851 79.7297 8.25606 79.2388C7.08361 78.7478 6.02054 78.0285 5.12873 77.1228C4.23692 76.217 3.53418 75.143 3.06143 73.963C2.58868 72.7831 2.35536 71.521 2.37505 70.25M21.541 70.25C21.541 72.7916 20.5325 75.2279 18.7353 77.025C16.9382 78.8222 14.5007 79.8318 11.9592 79.8318C9.4176 79.8318 6.98013 78.8222 5.18298 77.025C3.38583 75.2279 2.37505 72.7916 2.37505 70.25M21.541 70.25C21.541 67.7085 20.5325 65.2699 18.7353 63.4727C16.9382 61.6756 14.5007 60.6659 11.9592 60.6659C9.4176 60.6659 6.98013 61.6756 5.18298 63.4727C3.38583 65.2699 2.37505 67.7085 2.37505 70.25M88.625 27.125H79.0409M88.625 46.2909H79.0409" stroke="#306CFE" stroke-width="4.6" stroke-linecap="round" stroke-linejoin="round"/>
</svg>
