<svg width="93" height="82" viewBox="0 0 93 82" fill="none" xmlns="http://www.w3.org/2000/svg">
<path d="M26.5554 12.8563L22.2589 15.5875V79.4445H70.741V15.5875L66.1554 12.984L61.0331 11.6088L61.2902 10.6297C61.4991 9.83766 61.4131 8.99666 61.0482 8.26328C60.6833 7.5299 60.0643 6.9541 59.3065 6.64306L53.7833 4.37501C49.8149 2.74487 45.4351 2.4013 41.2611 3.39272L38.0219 4.16258C36.4002 4.54802 34.886 5.29321 33.5913 6.34298C32.2965 7.39276 31.2544 8.72026 30.5421 10.2272L29.9463 11.489L26.5554 12.8563ZM86.4305 40.0394L70.741 35.2477V15.5875L91.2222 25.1724L86.4305 40.0394Z" fill="#61B2E4"/>
<path d="M60.5747 8.00549C60.5747 8.00549 64.6811 9.74167 54.526 25.789L49.4005 17.5393L56.596 9.79917L59.0765 6.95452M33.6104 6.94653L36.816 11.3389L44.0243 19.0902L38.8972 27.3399C27.4659 13.1997 31.3807 9.31841 31.3807 9.31841" fill="#92D3F5"/>
<path d="M6.5695 40.0394L22.259 35.2477V15.5891L1.77783 25.1724L6.5695 40.0394Z" fill="#61B2E4"/>
<path d="M66.1555 14.3416L70.7411 15.5891M70.7411 15.5891V79.4444H22.259V15.5891M70.7411 15.5891V35.2477L86.4306 40.0394L91.2223 25.1724L70.7411 15.5891ZM22.259 15.5891L26.5555 14.2139M22.259 15.5891V35.2477L6.5695 40.0394L1.77783 25.1724L22.259 15.5891Z" stroke="black" stroke-width="3.19444" stroke-linecap="round" stroke-linejoin="round"/>
<path d="M56.5976 9.79922L49.4006 17.5394L54.5261 25.789C65.959 11.6488 62.0442 7.76755 62.0442 7.76755C45.3644 -5.58682 30.5949 7.76755 30.5949 7.76755C30.5949 7.76755 26.6785 11.6488 38.1114 25.789L43.2385 17.5394L36.0302 9.78804" stroke="black" stroke-width="3.19444" stroke-linecap="round" stroke-linejoin="round"/>
<path d="M46.3195 25.9822C47.0719 25.9822 47.6819 25.3722 47.6819 24.6198C47.6819 23.8673 47.0719 23.2573 46.3195 23.2573C45.567 23.2573 44.957 23.8673 44.957 24.6198C44.957 25.3722 45.567 25.9822 46.3195 25.9822Z" fill="black"/>
<path d="M46.3195 31.2003C47.0719 31.2003 47.6819 30.5903 47.6819 29.8379C47.6819 29.0854 47.0719 28.4755 46.3195 28.4755C45.567 28.4755 44.957 29.0854 44.957 29.8379C44.957 30.5903 45.567 31.2003 46.3195 31.2003Z" fill="black"/>
<path d="M46.3195 36.4169C47.0719 36.4169 47.6819 35.8069 47.6819 35.0544C47.6819 34.302 47.0719 33.692 46.3195 33.692C45.567 33.692 44.957 34.302 44.957 35.0544C44.957 35.8069 45.567 36.4169 46.3195 36.4169Z" fill="black"/>
</svg>
