<svg width="115" height="115" viewBox="0 0 115 115" fill="none" xmlns="http://www.w3.org/2000/svg">
<path d="M28.75 66.9635V52.5885L19.7656 57.5L5.39062 32.5833L37.0156 14.375H43.125C44.4028 18.2083 45.9201 21.5625 47.6771 24.4375C49.434 27.3125 52.7083 28.75 57.5 28.75C62.2917 28.75 65.566 27.3125 67.3229 24.4375C69.0799 21.5625 70.5972 18.2083 71.875 14.375H77.9844L109.49 32.7031L95.2344 57.5L86.25 52.5885V75.5885L78.7031 82.1771C78.1441 82.6562 77.5052 83.0364 76.7865 83.3175C76.0677 83.5986 75.349 83.7376 74.6302 83.7344C74.151 83.7344 73.592 83.5747 72.9531 83.2552C72.3142 82.9358 71.6753 82.5365 71.0365 82.0573L58.3385 71.1562C55.783 68.9201 52.908 67.283 49.7135 66.2448C46.5191 65.2066 43.2847 64.6875 40.0104 64.6875C38.0938 64.6875 36.1962 64.868 34.3179 65.229C32.4396 65.5899 30.5836 66.1681 28.75 66.9635ZM22.2812 92.8385L16.0521 85.5312L26.474 76.6667C28.3108 75.0694 30.4079 73.8508 32.7654 73.0106C35.1229 72.1705 37.5778 71.752 40.1302 71.7552C42.6826 71.7584 45.1183 72.1785 47.4375 73.0154C49.7567 73.8524 51.8331 75.0694 53.6667 76.6667L67.5625 88.526C68.5208 89.3247 69.6597 89.9444 70.979 90.3852C72.2983 90.826 73.6351 91.0449 74.9896 91.0417C76.4271 91.0417 77.7656 90.842 79.005 90.4427C80.2444 90.0434 81.3417 89.4045 82.2969 88.526L92.7188 79.5417L98.9479 86.9687L88.526 95.8333C86.6892 97.4305 84.6128 98.6285 82.2969 99.4271C79.9809 100.226 77.5451 100.625 74.9896 100.625C72.434 100.625 69.9791 100.226 67.6248 99.4271C65.2705 98.6285 63.1733 97.4305 61.3333 95.8333L47.4375 83.974C46.4792 83.1753 45.3819 82.5572 44.1456 82.1196C42.9094 81.6819 41.5709 81.4615 40.1302 81.4583C38.7726 81.4583 37.4357 81.6787 36.1196 82.1196C34.8035 82.5604 33.6647 83.1785 32.7031 83.974L22.2812 92.8385Z" fill="black"/>
</svg>
